<mxfile host="app.diagrams.net" modified="2022-11-30T00:34:48.295Z" agent="5.0 (Windows)" etag="U-jjUWoS0NzTh4diw4tM" version="20.5.3" type="github">
  <diagram id="NzxkdCqYVqEtQMb04D2R" name="Página-1">
    <mxGraphModel dx="2591" dy="1700" grid="1" gridSize="10" guides="1" tooltips="1" connect="1" arrows="1" fold="1" page="1" pageScale="1" pageWidth="1169" pageHeight="827" math="0" shadow="0">
      <root>
        <mxCell id="0" />
        <mxCell id="1" parent="0" />
        <mxCell id="8l44zMonfUS_cJlzQev2-26" style="edgeStyle=orthogonalEdgeStyle;rounded=0;orthogonalLoop=1;jettySize=auto;html=1;" edge="1" parent="1" target="8l44zMonfUS_cJlzQev2-5">
          <mxGeometry relative="1" as="geometry">
            <mxPoint x="622.9999999999995" y="-10" as="sourcePoint" />
            <Array as="points">
              <mxPoint x="623" y="10" />
              <mxPoint x="775" y="10" />
            </Array>
          </mxGeometry>
        </mxCell>
        <mxCell id="8l44zMonfUS_cJlzQev2-27" style="edgeStyle=orthogonalEdgeStyle;rounded=0;orthogonalLoop=1;jettySize=auto;html=1;entryX=0.5;entryY=0;entryDx=0;entryDy=0;" edge="1" parent="1">
          <mxGeometry relative="1" as="geometry">
            <mxPoint x="622.9999999999995" y="-10" as="sourcePoint" />
            <mxPoint x="968" y="30" as="targetPoint" />
            <Array as="points">
              <mxPoint x="623" y="10" />
              <mxPoint x="968" y="10" />
            </Array>
          </mxGeometry>
        </mxCell>
        <mxCell id="8l44zMonfUS_cJlzQev2-37" style="edgeStyle=orthogonalEdgeStyle;rounded=0;orthogonalLoop=1;jettySize=auto;html=1;" edge="1" parent="1" target="8l44zMonfUS_cJlzQev2-6">
          <mxGeometry relative="1" as="geometry">
            <mxPoint x="600" as="sourcePoint" />
            <Array as="points">
              <mxPoint x="600" y="10" />
              <mxPoint x="105" y="10" />
            </Array>
          </mxGeometry>
        </mxCell>
        <mxCell id="8l44zMonfUS_cJlzQev2-82" style="edgeStyle=orthogonalEdgeStyle;rounded=0;orthogonalLoop=1;jettySize=auto;html=1;entryX=0.5;entryY=0;entryDx=0;entryDy=0;fontFamily=Helvetica;fontSize=12;" edge="1" parent="1" source="8l44zMonfUS_cJlzQev2-2" target="8l44zMonfUS_cJlzQev2-16">
          <mxGeometry relative="1" as="geometry">
            <Array as="points">
              <mxPoint x="600" y="10" />
              <mxPoint x="475" y="10" />
            </Array>
          </mxGeometry>
        </mxCell>
        <mxCell id="8l44zMonfUS_cJlzQev2-83" style="edgeStyle=orthogonalEdgeStyle;rounded=0;orthogonalLoop=1;jettySize=auto;html=1;fontFamily=Helvetica;fontSize=12;" edge="1" parent="1" source="8l44zMonfUS_cJlzQev2-2" target="8l44zMonfUS_cJlzQev2-79">
          <mxGeometry relative="1" as="geometry">
            <Array as="points">
              <mxPoint x="600" y="10" />
              <mxPoint x="299" y="10" />
            </Array>
          </mxGeometry>
        </mxCell>
        <mxCell id="8l44zMonfUS_cJlzQev2-2" value="Gerente&lt;br&gt;" style="rounded=0;whiteSpace=wrap;html=1;fillColor=#dae8fc;strokeColor=#6c8ebf;" vertex="1" parent="1">
          <mxGeometry x="520" y="-40" width="190" height="30" as="geometry" />
        </mxCell>
        <mxCell id="8l44zMonfUS_cJlzQev2-48" style="edgeStyle=orthogonalEdgeStyle;rounded=0;orthogonalLoop=1;jettySize=auto;html=1;entryX=0.5;entryY=0;entryDx=0;entryDy=0;" edge="1" parent="1" target="8l44zMonfUS_cJlzQev2-18">
          <mxGeometry relative="1" as="geometry">
            <mxPoint x="775.030303030303" y="71" as="sourcePoint" />
            <mxPoint x="928" y="231" as="targetPoint" />
            <Array as="points">
              <mxPoint x="775" y="121" />
              <mxPoint x="928" y="121" />
            </Array>
          </mxGeometry>
        </mxCell>
        <mxCell id="8l44zMonfUS_cJlzQev2-84" style="edgeStyle=orthogonalEdgeStyle;rounded=0;orthogonalLoop=1;jettySize=auto;html=1;entryX=1;entryY=0.5;entryDx=0;entryDy=0;fontFamily=Helvetica;fontSize=12;" edge="1" parent="1" source="8l44zMonfUS_cJlzQev2-5" target="8l44zMonfUS_cJlzQev2-70">
          <mxGeometry relative="1" as="geometry" />
        </mxCell>
        <mxCell id="8l44zMonfUS_cJlzQev2-85" style="edgeStyle=orthogonalEdgeStyle;rounded=0;orthogonalLoop=1;jettySize=auto;html=1;entryX=0.592;entryY=0.02;entryDx=0;entryDy=0;entryPerimeter=0;fontFamily=Helvetica;fontSize=12;" edge="1" parent="1" source="8l44zMonfUS_cJlzQev2-5" target="8l44zMonfUS_cJlzQev2-11">
          <mxGeometry relative="1" as="geometry">
            <Array as="points">
              <mxPoint x="775" y="120" />
              <mxPoint x="929" y="120" />
            </Array>
          </mxGeometry>
        </mxCell>
        <mxCell id="8l44zMonfUS_cJlzQev2-86" style="edgeStyle=orthogonalEdgeStyle;rounded=0;orthogonalLoop=1;jettySize=auto;html=1;entryX=0.652;entryY=0.033;entryDx=0;entryDy=0;entryPerimeter=0;fontFamily=Helvetica;fontSize=12;" edge="1" parent="1">
          <mxGeometry relative="1" as="geometry">
            <mxPoint x="769.9565217391305" y="80" as="sourcePoint" />
            <mxPoint x="929.06" y="306.6500000000001" as="targetPoint" />
            <Array as="points">
              <mxPoint x="780" y="80" />
              <mxPoint x="780" y="120" />
              <mxPoint x="929" y="120" />
            </Array>
          </mxGeometry>
        </mxCell>
        <mxCell id="8l44zMonfUS_cJlzQev2-87" style="edgeStyle=orthogonalEdgeStyle;rounded=0;orthogonalLoop=1;jettySize=auto;html=1;fontFamily=Helvetica;fontSize=12;" edge="1" parent="1" source="8l44zMonfUS_cJlzQev2-5" target="8l44zMonfUS_cJlzQev2-20">
          <mxGeometry relative="1" as="geometry">
            <Array as="points">
              <mxPoint x="775" y="120" />
              <mxPoint x="928" y="120" />
            </Array>
          </mxGeometry>
        </mxCell>
        <mxCell id="8l44zMonfUS_cJlzQev2-88" style="edgeStyle=orthogonalEdgeStyle;rounded=0;orthogonalLoop=1;jettySize=auto;html=1;fontFamily=Helvetica;fontSize=12;" edge="1" parent="1" source="8l44zMonfUS_cJlzQev2-5" target="8l44zMonfUS_cJlzQev2-19">
          <mxGeometry relative="1" as="geometry">
            <Array as="points">
              <mxPoint x="775" y="120" />
              <mxPoint x="928" y="120" />
            </Array>
          </mxGeometry>
        </mxCell>
        <mxCell id="8l44zMonfUS_cJlzQev2-5" value="Ingeniero Encargado de producción." style="rounded=0;whiteSpace=wrap;html=1;fillColor=#f8cecc;strokeColor=#b85450;" vertex="1" parent="1">
          <mxGeometry x="695" y="30" width="160" height="50" as="geometry" />
        </mxCell>
        <mxCell id="8l44zMonfUS_cJlzQev2-39" value="" style="edgeStyle=orthogonalEdgeStyle;rounded=0;orthogonalLoop=1;jettySize=auto;html=1;" edge="1" parent="1" source="8l44zMonfUS_cJlzQev2-6" target="8l44zMonfUS_cJlzQev2-38">
          <mxGeometry relative="1" as="geometry" />
        </mxCell>
        <mxCell id="8l44zMonfUS_cJlzQev2-6" value="Contador&lt;br&gt;" style="rounded=0;whiteSpace=wrap;html=1;fillColor=#f8cecc;strokeColor=#b85450;" vertex="1" parent="1">
          <mxGeometry x="60" y="40" width="90" height="30" as="geometry" />
        </mxCell>
        <mxCell id="8l44zMonfUS_cJlzQev2-31" style="edgeStyle=orthogonalEdgeStyle;rounded=0;orthogonalLoop=1;jettySize=auto;html=1;" edge="1" parent="1" source="8l44zMonfUS_cJlzQev2-14" target="8l44zMonfUS_cJlzQev2-17">
          <mxGeometry relative="1" as="geometry" />
        </mxCell>
        <mxCell id="8l44zMonfUS_cJlzQev2-14" value="Encargados de Almacenamiento.&lt;span&gt;&lt;span style=&quot;mso-list:Ignore&quot;&gt;·&lt;span style=&quot;font:7.0pt &amp;quot;Times New Roman&amp;quot;&quot;&gt;&lt;/span&gt;&lt;/span&gt;&lt;/span&gt;&lt;br&gt;" style="rounded=0;whiteSpace=wrap;html=1;fillColor=#f8cecc;strokeColor=#b85450;" vertex="1" parent="1">
          <mxGeometry x="880" y="30" width="170" height="50" as="geometry" />
        </mxCell>
        <mxCell id="8l44zMonfUS_cJlzQev2-64" style="edgeStyle=orthogonalEdgeStyle;rounded=0;orthogonalLoop=1;jettySize=auto;html=1;exitX=0;exitY=0.5;exitDx=0;exitDy=0;entryX=1;entryY=0.5;entryDx=0;entryDy=0;" edge="1" parent="1" target="8l44zMonfUS_cJlzQev2-59">
          <mxGeometry relative="1" as="geometry">
            <mxPoint x="859.9999999999995" y="327.5" as="sourcePoint" />
          </mxGeometry>
        </mxCell>
        <mxCell id="8l44zMonfUS_cJlzQev2-15" value="Encargados de mantener el cultivo en cada etapa" style="rounded=0;whiteSpace=wrap;html=1;fillColor=#e1d5e7;strokeColor=#9673a6;" vertex="1" parent="1">
          <mxGeometry x="833" y="305" width="155" height="50" as="geometry" />
        </mxCell>
        <mxCell id="8l44zMonfUS_cJlzQev2-16" value="Encargado de ventas.&lt;span&gt;&lt;span style=&quot;mso-list:Ignore&quot;&gt;&lt;span style=&quot;font:7.0pt &amp;quot;Times New Roman&amp;quot;&quot;&gt; &lt;br&gt;&lt;/span&gt;&lt;/span&gt;&lt;/span&gt;" style="rounded=0;whiteSpace=wrap;html=1;fillColor=#f8cecc;strokeColor=#b85450;" vertex="1" parent="1">
          <mxGeometry x="415" y="40" width="120" height="40" as="geometry" />
        </mxCell>
        <mxCell id="8l44zMonfUS_cJlzQev2-17" value="&lt;div align=&quot;justify&quot;&gt;Gestión y administración&amp;nbsp; de compra y distribuidores de materiales en las áreas de producción correspondientes.&lt;span&gt;&lt;span style=&quot;mso-list:Ignore&quot;&gt;&lt;span style=&quot;font:7.0pt &amp;quot;Times New Roman&amp;quot;&quot;&gt;&amp;nbsp;&amp;nbsp;&amp;nbsp;&amp;nbsp;&amp;nbsp;&amp;nbsp; &lt;/span&gt;&lt;/span&gt;&lt;/span&gt;&lt;/div&gt;" style="rounded=0;whiteSpace=wrap;html=1;" vertex="1" parent="1">
          <mxGeometry x="1000" y="130" width="160" height="80" as="geometry" />
        </mxCell>
        <mxCell id="8l44zMonfUS_cJlzQev2-54" value="" style="edgeStyle=orthogonalEdgeStyle;rounded=0;orthogonalLoop=1;jettySize=auto;html=1;" edge="1" parent="1" target="8l44zMonfUS_cJlzQev2-53">
          <mxGeometry relative="1" as="geometry">
            <mxPoint x="894.9999999999995" y="257.5" as="sourcePoint" />
          </mxGeometry>
        </mxCell>
        <mxCell id="8l44zMonfUS_cJlzQev2-18" value="Ayudante General.&lt;span&gt;&lt;span style=&quot;mso-list:Ignore&quot;&gt;&lt;span style=&quot;font:7.0pt &amp;quot;Times New Roman&amp;quot;&quot;&gt;&amp;nbsp;&amp;nbsp;&amp;nbsp;&amp;nbsp;&amp;nbsp;&amp;nbsp;&amp;nbsp; &lt;/span&gt;&lt;/span&gt;&lt;/span&gt;" style="rounded=0;whiteSpace=wrap;html=1;fillColor=#e1d5e7;strokeColor=#9673a6;" vertex="1" parent="1">
          <mxGeometry x="868" y="240" width="120" height="40" as="geometry" />
        </mxCell>
        <mxCell id="8l44zMonfUS_cJlzQev2-67" style="edgeStyle=orthogonalEdgeStyle;rounded=0;orthogonalLoop=1;jettySize=auto;html=1;entryX=1;entryY=0.5;entryDx=0;entryDy=0;" edge="1" parent="1" target="8l44zMonfUS_cJlzQev2-61">
          <mxGeometry relative="1" as="geometry">
            <mxPoint x="894.9999999999995" y="467.5" as="sourcePoint" />
          </mxGeometry>
        </mxCell>
        <mxCell id="8l44zMonfUS_cJlzQev2-19" value="Distribuidores (Repartidores).&lt;br&gt;" style="rounded=0;whiteSpace=wrap;html=1;fillColor=#e1d5e7;strokeColor=#9673a6;" vertex="1" parent="1">
          <mxGeometry x="868" y="450" width="120" height="40" as="geometry" />
        </mxCell>
        <mxCell id="8l44zMonfUS_cJlzQev2-66" style="edgeStyle=orthogonalEdgeStyle;rounded=0;orthogonalLoop=1;jettySize=auto;html=1;entryX=1;entryY=0.5;entryDx=0;entryDy=0;" edge="1" parent="1" target="8l44zMonfUS_cJlzQev2-60">
          <mxGeometry relative="1" as="geometry">
            <mxPoint x="894.9999999999995" y="397.5" as="sourcePoint" />
          </mxGeometry>
        </mxCell>
        <mxCell id="8l44zMonfUS_cJlzQev2-20" value="&lt;span&gt;&lt;/span&gt;Encargado de mantenimiento.&lt;span&gt;&lt;span style=&quot;mso-list:Ignore&quot;&gt;&lt;span style=&quot;font:7.0pt &amp;quot;Times New Roman&amp;quot;&quot;&gt;&amp;nbsp;&amp;nbsp;&amp;nbsp;&amp;nbsp;&amp;nbsp;&amp;nbsp; &lt;/span&gt;&lt;/span&gt;&lt;/span&gt;" style="rounded=0;whiteSpace=wrap;html=1;fillColor=#e1d5e7;strokeColor=#9673a6;" vertex="1" parent="1">
          <mxGeometry x="868" y="377" width="120" height="46" as="geometry" />
        </mxCell>
        <mxCell id="8l44zMonfUS_cJlzQev2-38" value="&lt;br&gt;&lt;div align=&quot;justify&quot;&gt;&lt;span class=&quot;ILfuVd&quot; lang=&quot;es&quot;&gt;&lt;span class=&quot;hgKElc&quot;&gt; llevar un &lt;/span&gt;&lt;/span&gt;&lt;span class=&quot;ILfuVd&quot; lang=&quot;es&quot;&gt;&lt;span class=&quot;hgKElc&quot;&gt;registro de activos y pasivos de la empresa y, algunas veces, efectúa &lt;/span&gt;&lt;/span&gt;&lt;span class=&quot;ILfuVd&quot; lang=&quot;es&quot;&gt;&lt;span class=&quot;hgKElc&quot;&gt;todos sus pagos correspondientes, como el pago de nóminas a trabajadores.&lt;/span&gt;&lt;/span&gt;&lt;br&gt;&lt;/div&gt;" style="whiteSpace=wrap;html=1;rounded=0;" vertex="1" parent="1">
          <mxGeometry x="-60" y="100" width="240" height="70" as="geometry" />
        </mxCell>
        <mxCell id="8l44zMonfUS_cJlzQev2-42" value="&lt;br&gt;&lt;div align=&quot;justify&quot;&gt;&lt;span class=&quot;ILfuVd&quot; lang=&quot;es&quot;&gt;&lt;span class=&quot;hgKElc&quot;&gt;Supervisar y coordinar las operaciones de los departamentos de ventas.&lt;/span&gt;&lt;/span&gt;&lt;br&gt;&lt;/div&gt;" style="whiteSpace=wrap;html=1;rounded=0;" vertex="1" parent="1">
          <mxGeometry x="415" y="100" width="145" height="70" as="geometry" />
        </mxCell>
        <mxCell id="8l44zMonfUS_cJlzQev2-63" style="edgeStyle=orthogonalEdgeStyle;rounded=0;orthogonalLoop=1;jettySize=auto;html=1;entryX=1;entryY=0.5;entryDx=0;entryDy=0;" edge="1" parent="1">
          <mxGeometry relative="1" as="geometry">
            <mxPoint x="869.9999999999995" y="192.5" as="sourcePoint" />
            <mxPoint x="819.9999999999995" y="192.5" as="targetPoint" />
          </mxGeometry>
        </mxCell>
        <mxCell id="8l44zMonfUS_cJlzQev2-11" value="&lt;span&gt;&lt;/span&gt;Encargados de producción de plántula.&lt;span&gt;&lt;span style=&quot;mso-list:Ignore&quot;&gt;&lt;span style=&quot;font:7.0pt &amp;quot;Times New Roman&amp;quot;&quot;&gt;&amp;nbsp;&amp;nbsp;&amp;nbsp;&amp;nbsp;&amp;nbsp;&amp;nbsp;&amp;nbsp; &lt;/span&gt;&lt;/span&gt;&lt;/span&gt;" style="whiteSpace=wrap;html=1;rounded=0;fillColor=#e1d5e7;strokeColor=#9673a6;" vertex="1" parent="1">
          <mxGeometry x="843" y="170" width="145" height="50" as="geometry" />
        </mxCell>
        <mxCell id="8l44zMonfUS_cJlzQev2-53" value="Encargado de realizar actividades en las áreas en las que se neseciten." style="whiteSpace=wrap;html=1;rounded=0;" vertex="1" parent="1">
          <mxGeometry x="700" y="227.5" width="120" height="60" as="geometry" />
        </mxCell>
        <mxCell id="8l44zMonfUS_cJlzQev2-57" value="&lt;div align=&quot;justify&quot;&gt;&lt;font style=&quot;font-size: 12px;&quot; face=&quot;Helvetica&quot;&gt;&lt;span id=&quot;page214R_mcid39&quot; class=&quot;markedContent&quot;&gt;&lt;span dir=&quot;ltr&quot; role=&quot;presentation&quot; style=&quot;left: 29.2px; top: 445.377px; transform: scaleX(0.704603);&quot;&gt;Encargado de desinfección, preparación de sustrato y llenado de charolas.&lt;/span&gt;&lt;/span&gt;&lt;span id=&quot;page214R_mcid39&quot; class=&quot;markedContent&quot;&gt;&lt;span dir=&quot;ltr&quot; role=&quot;presentation&quot; style=&quot;left: 29.2px; top: 445.377px; transform: scaleX(0.704603);&quot;&gt;colocacion de semillas y tapado de charolas.&lt;br&gt;&lt;/span&gt;&lt;/span&gt;&lt;/font&gt;&lt;font style=&quot;font-size: 12px;&quot; face=&quot;Helvetica&quot;&gt;&lt;span id=&quot;page214R_mcid39&quot; class=&quot;markedContent&quot;&gt;&lt;span dir=&quot;ltr&quot; role=&quot;presentation&quot; style=&quot;left: 29.2px; top: 445.377px; transform: scaleX(0.704603);&quot;&gt;&lt;/span&gt;&lt;/span&gt;&lt;/font&gt;&lt;/div&gt;" style="rounded=0;whiteSpace=wrap;html=1;" vertex="1" parent="1">
          <mxGeometry x="610" y="162.5" width="210" height="60" as="geometry" />
        </mxCell>
        <mxCell id="8l44zMonfUS_cJlzQev2-59" value="&lt;div align=&quot;justify&quot;&gt;Encargado de&lt;span id=&quot;page214R_mcid41&quot; class=&quot;markedContent&quot;&gt;&lt;span dir=&quot;ltr&quot; role=&quot;presentation&quot; style=&quot;left: 234.233px; top: 483.177px; transform: scaleX(0.656546);&quot;&gt; aplicación de &lt;/span&gt;&lt;/span&gt;&lt;span id=&quot;page214R_mcid41&quot; class=&quot;markedContent&quot;&gt;&lt;span dir=&quot;ltr&quot; role=&quot;presentation&quot; style=&quot;left: 234.633px; top: 507.177px; transform: scaleX(0.618904);&quot;&gt;agua, fertilizantes, &lt;/span&gt;&lt;/span&gt;&lt;span id=&quot;page214R_mcid41&quot; class=&quot;markedContent&quot;&gt;&lt;span dir=&quot;ltr&quot; role=&quot;presentation&quot; style=&quot;left: 263.833px; top: 531.377px; transform: scaleX(0.644591);&quot;&gt;pesticidas,&lt;/span&gt;&lt;/span&gt;&lt;span id=&quot;page214R_mcid41&quot; class=&quot;markedContent&quot;&gt;&lt;span dir=&quot;ltr&quot; role=&quot;presentation&quot; style=&quot;left: 262.833px; top: 555.577px; transform: scaleX(0.728972);&quot;&gt;enraizados&lt;/span&gt;&lt;/span&gt;, &lt;/div&gt;" style="rounded=0;whiteSpace=wrap;html=1;" vertex="1" parent="1">
          <mxGeometry x="670" y="297.5" width="150" height="60" as="geometry" />
        </mxCell>
        <mxCell id="8l44zMonfUS_cJlzQev2-60" value="realizar limpieza y mantenimiento de las distintas áreas dentro de las instalaciones" style="rounded=0;whiteSpace=wrap;html=1;" vertex="1" parent="1">
          <mxGeometry x="700" y="367.5" width="120" height="60" as="geometry" />
        </mxCell>
        <mxCell id="8l44zMonfUS_cJlzQev2-61" value="Encargado de Traslado y cuidado de la plantula a la localización del cleinte" style="rounded=0;whiteSpace=wrap;html=1;" vertex="1" parent="1">
          <mxGeometry x="700" y="437.5" width="120" height="60" as="geometry" />
        </mxCell>
        <mxCell id="8l44zMonfUS_cJlzQev2-70" value="&lt;div align=&quot;justify&quot;&gt;Supervisión, Control y formulación de solución nutritiva, capacitación, etc.&amp;nbsp; &lt;br&gt;&lt;/div&gt;" style="rounded=0;whiteSpace=wrap;html=1;fontFamily=Helvetica;fontSize=12;" vertex="1" parent="1">
          <mxGeometry x="580" y="110" width="165" height="40" as="geometry" />
        </mxCell>
        <mxCell id="8l44zMonfUS_cJlzQev2-81" value="" style="edgeStyle=orthogonalEdgeStyle;rounded=0;orthogonalLoop=1;jettySize=auto;html=1;fontFamily=Helvetica;fontSize=12;" edge="1" parent="1" source="8l44zMonfUS_cJlzQev2-79" target="8l44zMonfUS_cJlzQev2-80">
          <mxGeometry relative="1" as="geometry" />
        </mxCell>
        <mxCell id="8l44zMonfUS_cJlzQev2-79" value="Gerente de Recursos Humanos" style="rounded=0;whiteSpace=wrap;html=1;fillColor=#f8cecc;strokeColor=#b85450;" vertex="1" parent="1">
          <mxGeometry x="224" y="40" width="150" height="40" as="geometry" />
        </mxCell>
        <mxCell id="8l44zMonfUS_cJlzQev2-80" value="&lt;b&gt;&lt;br&gt;&lt;/b&gt;&lt;div align=&quot;justify&quot;&gt;&lt;span class=&quot;ILfuVd&quot; lang=&quot;es&quot;&gt;&lt;span class=&quot;hgKElc&quot;&gt;gestionar &lt;/span&gt;&lt;/span&gt;&lt;span class=&quot;ILfuVd&quot; lang=&quot;es&quot;&gt;&lt;span class=&quot;hgKElc&quot;&gt;actividades como diseño de puestos, reclutamiento, relaciones entre &lt;/span&gt;&lt;/span&gt;&lt;span class=&quot;ILfuVd&quot; lang=&quot;es&quot;&gt;&lt;span class=&quot;hgKElc&quot;&gt;empleados, gestión del rendimiento, formación y desarrollo, y gestión &lt;/span&gt;&lt;/span&gt;&lt;span class=&quot;ILfuVd&quot; lang=&quot;es&quot;&gt;&lt;span class=&quot;hgKElc&quot;&gt;del talento.&lt;/span&gt;&lt;/span&gt;&lt;br&gt;&lt;br&gt;&lt;/div&gt;" style="whiteSpace=wrap;html=1;rounded=0;" vertex="1" parent="1">
          <mxGeometry x="194" y="100" width="210" height="80" as="geometry" />
        </mxCell>
      </root>
    </mxGraphModel>
  </diagram>
</mxfile>
